<svg xmlns="http://www.w3.org/2000/svg" viewBox="0 0 1440 320"><path fill="#0099ff" fill-opacity="1" d="M0,96L24,117.3C48,139,96,181,144,165.3C192,149,240,75,288,74.7C336,75,384,149,432,176C480,203,528,181,576,160C624,139,672,117,720,112C768,107,816,117,864,128C912,139,960,149,1008,133.3C1056,117,1104,75,1152,74.7C1200,75,1248,117,1296,117.3C1344,117,1392,75,1416,53.3L1440,32L1440,0L1416,0C1392,0,1344,0,1296,0C1248,0,1200,0,1152,0C1104,0,1056,0,1008,0C960,0,912,0,864,0C816,0,768,0,720,0C672,0,624,0,576,0C528,0,480,0,432,0C384,0,336,0,288,0C240,0,192,0,144,0C96,0,48,0,24,0L0,0Z"></path></svg>